<svg width="397" height="400" viewBox="0 0 397 400" fill="none" xmlns="http://www.w3.org/2000/svg">
<g filter="url(#filter0_f)">
<path d="M253.747 330.209C278.833 355.289 308.517 308.473 337.784 337.733C308.936 308.891 355.762 279.212 330.258 253.714C365.796 253.714 353.671 199.791 394.645 199.791C353.671 199.791 365.796 145.868 330.258 145.868C355.344 120.788 308.517 91.1093 337.784 61.8489C308.936 90.6913 279.251 43.8746 253.747 69.373C253.747 33.8424 199.813 45.9646 199.813 5C199.813 45.9646 145.879 33.8424 145.879 69.373V69.791C120.794 44.7106 91.109 91.5273 61.8425 62.2669C90.6909 91.1093 43.8645 120.788 69.3682 146.286C33.8302 146.286 45.9549 200.209 4.98181 200.209C45.9549 200.209 33.8302 254.132 69.3682 254.132C44.2826 279.212 91.109 308.891 61.8425 338.151C90.6909 309.309 120.376 356.125 145.879 330.627C145.879 366.158 199.813 354.035 199.813 395C199.813 354.035 253.747 366.158 253.747 330.209Z" stroke="#F0EBF9" stroke-width="3" stroke-miterlimit="10" stroke-linecap="round" stroke-linejoin="round"/>
<path d="M199.813 304.711C209.847 329.373 243.713 305.547 255.42 333.553C243.713 305.547 284.268 298.441 274.234 273.778C298.901 283.81 306.009 243.264 334.021 254.968C306.009 243.264 329.422 209.405 305.173 199.373C329.84 189.341 306.009 155.482 334.021 143.778C306.009 155.482 298.901 114.936 274.234 124.968C284.268 100.306 243.713 93.1994 255.42 65.193C243.713 93.1994 209.847 69.7911 199.813 94.0354C189.779 69.3731 155.913 93.1994 144.207 65.193C155.913 93.1994 115.358 100.306 125.393 124.968C100.725 114.936 93.6175 155.482 65.6053 143.778C93.6175 155.482 70.2043 189.341 94.4537 199.373C70.2043 209.823 93.6175 243.264 65.6053 254.968C93.6175 243.264 100.725 283.81 125.393 273.778C115.358 298.441 155.913 305.547 144.207 333.553C155.495 305.547 189.361 329.373 199.813 304.711Z" stroke="#F0EBF9" stroke-width="3" stroke-miterlimit="10" stroke-linecap="round" stroke-linejoin="round"/>
<path d="M229.498 271.688C243.295 285.482 259.6 259.984 275.906 275.868C260.019 259.984 285.94 243.682 271.725 229.47C291.375 229.47 284.686 199.791 307.263 199.791C284.686 199.791 291.375 170.113 271.725 170.113C285.522 156.319 260.019 140.016 275.906 123.714C260.019 139.598 243.713 113.682 229.498 127.894C229.498 108.248 199.813 114.936 199.813 92.3635C199.813 114.936 170.129 108.248 170.129 127.894C156.331 114.1 140.026 139.598 123.72 123.714C139.608 139.598 113.686 155.901 127.901 170.113C108.251 170.113 114.94 199.791 92.3632 199.791C114.94 199.791 108.251 229.47 127.901 229.47C114.104 243.264 139.608 259.566 123.72 275.868C139.608 259.984 155.913 285.901 170.129 271.688C170.129 291.335 199.813 284.646 199.813 307.219C199.813 284.646 229.498 291.335 229.498 271.688Z" stroke="#F0EBF9" stroke-width="3" stroke-miterlimit="10" stroke-linecap="round" stroke-linejoin="round"/>
<path d="M199.813 258.312C205.666 272.106 224.481 258.73 230.752 274.614C224.062 258.73 247.058 254.968 241.204 241.174C255.001 247.026 258.764 224.035 274.652 230.723C258.764 224.035 272.143 205.225 258.346 199.791C272.143 193.939 258.764 175.129 274.652 168.858C258.764 175.547 255.001 152.556 241.204 158.408C247.058 144.614 224.062 140.852 230.752 124.968C224.062 140.852 205.248 127.476 199.813 141.27C193.96 127.476 175.146 140.852 168.874 124.968C175.564 140.852 152.569 144.614 158.422 158.408C144.625 152.556 140.862 175.547 124.974 168.858C140.862 175.547 127.483 194.357 141.28 199.791C127.483 205.643 140.862 224.453 124.974 230.723C140.862 224.035 144.625 247.026 158.422 241.174C152.569 254.968 175.564 258.73 168.874 274.614C175.146 258.73 193.96 272.106 199.813 258.312Z" stroke="#F0EBF9" stroke-width="3" stroke-miterlimit="10" stroke-linecap="round" stroke-linejoin="round"/>
<path d="M216.955 240.756C224.899 248.698 234.515 234.068 243.295 243.264C234.097 234.068 248.73 224.871 240.786 216.929C252.075 216.929 248.312 199.791 261.273 199.791C248.312 199.791 252.075 182.653 240.786 182.653C248.73 174.711 234.097 165.097 243.295 156.318C234.097 165.515 224.899 150.884 216.955 158.826C216.955 147.54 199.813 151.302 199.813 138.344C199.813 151.302 182.671 147.54 182.671 158.826C174.728 150.884 165.111 165.515 156.331 156.318C165.53 165.515 150.896 174.711 158.84 182.653C147.552 182.653 151.314 199.791 138.353 199.791C151.314 199.791 147.552 216.929 158.84 216.929C150.896 224.871 165.53 234.486 156.331 243.264C165.53 234.068 174.728 248.698 182.671 240.756C182.671 252.042 199.813 248.28 199.813 261.238C199.813 248.28 216.955 252.042 216.955 240.756Z" stroke="#F0EBF9" stroke-width="3" stroke-miterlimit="10" stroke-linecap="round" stroke-linejoin="round"/>
<path d="M199.813 234.067C203.158 242.01 214.028 234.485 217.791 243.682C214.028 234.485 227.407 231.977 224.063 224.035C232.006 227.379 234.515 214.003 243.713 217.765C234.515 214.003 242.459 202.717 234.097 199.373C242.041 196.029 234.515 185.161 243.713 181.399C234.515 185.161 232.006 171.785 224.063 175.129C227.407 167.186 214.028 164.678 217.791 155.482C214.028 164.678 202.74 156.736 199.395 165.096C196.05 157.154 185.18 164.678 181.417 155.482C185.18 164.678 171.801 167.186 175.146 175.129C167.202 171.785 164.693 185.161 155.495 181.399C164.693 185.161 156.75 196.447 165.111 199.791C157.168 203.135 164.693 214.003 155.495 217.765C164.693 214.003 167.202 227.379 175.146 224.035C171.801 231.977 185.18 234.485 181.417 243.682C185.18 234.485 196.468 242.01 199.813 234.067Z" stroke="#F0EBF9" stroke-width="3" stroke-miterlimit="10" stroke-linecap="round" stroke-linejoin="round"/>
<path d="M209.847 224.453C214.446 229.051 220.3 220.273 225.735 225.707C220.3 220.273 229.08 214.421 224.481 209.823C231.17 209.823 229.08 199.373 236.605 199.373C228.661 199.373 231.17 188.923 224.481 188.923C229.08 184.325 220.3 178.473 225.735 173.039C220.3 178.473 214.446 169.695 209.847 174.293C209.847 167.605 199.395 169.695 199.395 162.17C199.395 170.113 188.943 167.605 188.943 174.293C184.344 169.695 178.49 178.473 173.055 173.039C178.49 178.473 169.71 184.325 174.309 188.923C167.62 188.923 169.71 199.373 162.185 199.373C170.128 199.373 167.62 209.823 174.309 209.823C169.71 214.421 178.49 220.273 173.055 225.707C178.49 220.273 184.344 229.051 188.943 224.453C188.943 231.141 199.395 229.051 199.395 236.576C199.813 229.051 209.847 231.141 209.847 224.453Z" stroke="#F0EBF9" stroke-width="3" stroke-miterlimit="10" stroke-linecap="round" stroke-linejoin="round"/>
<path d="M199.813 220.273C201.904 225.289 208.593 220.273 210.684 226.125C208.175 220.691 216.537 219.019 214.446 214.421C219.464 216.511 220.718 208.569 226.153 210.659C220.718 208.151 225.317 201.881 220.3 199.791C225.317 197.701 220.3 191.013 226.153 188.923C220.718 191.431 219.045 183.071 214.446 185.161C216.537 180.145 208.593 178.891 210.684 173.457C208.175 178.891 201.904 174.293 199.813 179.309C197.723 174.293 191.033 179.309 188.943 173.457C191.451 178.891 183.089 180.563 185.18 185.161C180.163 183.071 178.908 191.013 173.473 188.923C178.908 191.431 174.309 197.701 179.327 199.791C174.309 201.881 179.327 208.569 173.473 210.659C178.908 208.151 180.581 216.511 185.18 214.421C183.089 219.437 191.033 220.691 188.943 226.125C191.033 220.691 197.723 225.289 199.813 220.273Z" stroke="#F0EBF9" stroke-width="3" stroke-miterlimit="10" stroke-linecap="round" stroke-linejoin="round"/>
<path d="M199.813 217.765C209.973 217.765 218.209 209.531 218.209 199.373C218.209 189.215 209.973 180.981 199.813 180.981C189.653 180.981 181.417 189.215 181.417 199.373C181.417 209.531 189.653 217.765 199.813 217.765Z" stroke="#F0EBF9" stroke-width="3" stroke-miterlimit="10" stroke-linecap="round" stroke-linejoin="round"/>
</g>
<defs>
<filter id="filter0_f" x="0.481812" y="0.5" width="398.663" height="399" filterUnits="userSpaceOnUse" color-interpolation-filters="sRGB">
<feFlood flood-opacity="0" result="BackgroundImageFix"/>
<feBlend mode="normal" in="SourceGraphic" in2="BackgroundImageFix" result="shape"/>
<feGaussianBlur stdDeviation="1.5" result="effect1_foregroundBlur"/>
</filter>
</defs>
</svg>
